/* XPM */
static char *result[] = {
/* columns rows colors chars-per-pixel */
"40 40 94 2 ",
"   c #211F30",
".  c #223429",
"X  c #28362B",
"o  c #2D332D",
"O  c #31392C",
"+  c #353C2F",
"@  c #2B2D31",
"#  c #3B2234",
"$  c #353A33",
"%  c #432235",
"&  c #4A2336",
"*  c #4C2336",
"=  c #572438",
"-  c #5F2539",
";  c #5F2D38",
":  c #593134",
">  c #65263A",
",  c #6A263A",
"<  c #67283A",
"1  c #692A3A",
"2  c #6D2E3A",
"3  c #6F303A",
"4  c #25551F",
"5  c #26651A",
"6  c #2E601E",
"7  c #277116",
"8  c #2A7715",
"9  c #277E12",
"0  c #38741A",
"q  c #3E7A1A",
"w  c #244823",
"e  c #2F4826",
"r  c #3E4E29",
"t  c #325222",
"y  c #3B4234",
"u  c #42592F",
"i  c #4A5636",
"p  c #4B5636",
"a  c #515E37",
"s  c #446420",
"d  c #496A23",
"f  c #5E772D",
"g  c #55782A",
"h  c #736E27",
"j  c #87293E",
"k  c #88293E",
"l  c #952B40",
"z  c #963940",
"x  c #AA2D43",
"c  c #BE2F46",
"v  c #A93243",
"b  c #A43A42",
"n  c #B93745",
"m  c #BF3D45",
"M  c #CD3E47",
"N  c #CC3048",
"B  c #CD3148",
"V  c #D03448",
"C  c #D13548",
"Z  c #D63A49",
"A  c #D83D49",
"S  c #D83E49",
"D  c #B54044",
"F  c #DA4049",
"G  c #DB4149",
"H  c #DC4249",
"J  c #DE444A",
"K  c #DF454A",
"L  c #E1474A",
"P  c #E2484A",
"I  c #E44A4A",
"U  c #E54D4C",
"Y  c #E6524F",
"T  c #E15353",
"R  c #E65450",
"E  c #E75752",
"W  c #E75A54",
"Q  c #E96158",
"!  c #E9645A",
"~  c #EA695D",
"^  c #EC7162",
"/  c #EC7464",
"(  c #EE7E6A",
")  c #28860F",
"_  c #348613",
"`  c #56871D",
"'  c #549617",
"]  c #628721",
"[  c #72952D",
"{  c #70873B",
"}  c #72B02E",
"|  c #8AA93E",
" . c #F18B72",
".. c None",
/* pixels */
"................................................................................",
"................................................................................",
"................................................................................",
"................................    ............................................",
"..............................  @ y $ ..........................................",
"..............................  p | a   ........................................",
"............................    u } g r o ......................................",
"........................        w ) ' ] O   ....................................",
"......................i { f d 6 4 w 0 q X   ....................................",
"....................  p | [ ` _ 5 . 5 7 .   ....................................",
"....................  @ y + e 8 9 7 9 7 .           ............................",
"......................    & : t s h s t : 1 3 3 2 < = ..........................",
"........................  k x % 3 I 3 % x Z I I K C k   ........................",
"......................; z m M b D I D b M J I I P H n k = ......................",
"....................  3 I Y E E Y I Y R U I I I I I F N >   ....................",
"....................  3 I ~ ( ( ~ I ~ / R I I I I I F N >   ....................",
"....................  3 I ^  . .^ I Q ~ Y I I J H P F N >   ....................",
"....................  3 I ^  . .^ I I I I I I Z C K F N >   ....................",
"....................  1 Z T ! ! W I I I I I I J H P F N >   ....................",
"....................  > N F I I I I I I I I I I I I F N >   ....................",
"....................  > N F I I I I I I I I I I I I F N >   ....................",
"....................  > N F I I I I I I I I I I I I F N >   ....................",
"....................  > N F I I I I I I I I I I I I F N >   ....................",
"......................* > v S L I I I I I I I I L A v > * ......................",
"........................  k V G K K K K K K K K G V j   ........................",
"........................  k B V C C C C C C C C V B j   ........................",
"........................  , l c N N N N N N N N c l ,   ........................",
"..........................  % x N N N N N N N N x %   ..........................",
"............................# - > > > > > > > > - # ............................",
"..............................                    ..............................",
"................................................................................",
"................................................................................",
"................................................................................",
"................................................................................",
"................................................................................",
"................................................................................",
"................................................................................",
"................................................................................",
"................................................................................",
"................................................................................"
};
