/* XPM */
static char *result[] = {
/* columns rows colors chars-per-pixel */
"40 40 171 2 ",
"   c #211F30",
".  c #27282F",
"X  c #2D312C",
"o  c #2A362E",
"O  c #2E342D",
"+  c #343E2B",
"@  c #333B2C",
"#  c #383D33",
"$  c #3A3F33",
"%  c #432235",
"&  c #472335",
"*  c #452434",
"=  c #482335",
"-  c #4C2336",
";  c #4E2336",
":  c #4F2436",
">  c #462C34",
",  c #502437",
"<  c #532737",
"1  c #562437",
"2  c #562B37",
"3  c #582538",
"4  c #4A343D",
"5  c #4F373F",
"6  c #58333C",
"7  c #51383F",
"8  c #6A263A",
"9  c #742B3A",
"0  c #79283C",
"q  c #7F283D",
"w  c #6D3039",
"e  c #6F323F",
"r  c #3C4927",
"t  c #38442B",
"y  c #3D4B2B",
"u  c #3E4D29",
"i  c #315523",
"p  c #4C442C",
"a  c #475C27",
"s  c #445130",
"d  c #475235",
"f  c #485433",
"g  c #495435",
"h  c #4F6421",
"j  c #4F6B2F",
"k  c #526023",
"l  c #4B7A25",
"z  c #583C41",
"x  c #754B4B",
"c  c #7B4A4A",
"v  c #83293E",
"b  c #9B433D",
"n  c #9A2B41",
"m  c #9B204A",
"M  c #943240",
"N  c #9B3A40",
"B  c #A82847",
"V  c #AD2D44",
"C  c #B32E45",
"Z  c #B42E45",
"A  c #BF2F46",
"S  c #AC3441",
"D  c #A23941",
"F  c #B83245",
"G  c #C42F47",
"H  c #C83047",
"J  c #CB3B47",
"K  c #CC3048",
"L  c #CF3A4A",
"P  c #CA3E4F",
"I  c #D33749",
"U  c #D53949",
"Y  c #D23C48",
"T  c #D13E48",
"R  c #D93E49",
"E  c #994349",
"W  c #944849",
"Q  c #9F4D4C",
"!  c #935A54",
"~  c #985D56",
"^  c #995D56",
"/  c #AB5F57",
"(  c #BF615B",
")  c #C64F42",
"_  c #D14246",
"`  c #D24846",
"'  c #D54748",
"]  c #DB4049",
"[  c #C15341",
"{  c #D25244",
"}  c #D95E44",
"|  c #DE514F",
" . c #CB5654",
".. c #C75C56",
"X. c #DE5652",
"o. c #D95754",
"O. c #DC5C5D",
"+. c #E0454A",
"@. c #E0464A",
"#. c #E1464A",
"$. c #E1474A",
"%. c #E2474A",
"&. c #E2484A",
"*. c #E3494A",
"=. c #E44A4A",
"-. c #E44B4B",
";. c #E44C4B",
":. c #E24C4C",
">. c #E54F4C",
",. c #E25747",
"<. c #E45149",
"1. c #E5514E",
"2. c #E4524E",
"3. c #E6534F",
"4. c #E5544E",
"5. c #E55551",
"6. c #E45750",
"7. c #E75752",
"8. c #E35851",
"9. c #E65950",
"0. c #E65B51",
"q. c #E65C51",
"w. c #DB635A",
"e. c #DF655A",
"r. c #E36445",
"t. c #E07641",
"y. c #E37442",
"u. c #E76153",
"i. c #E76655",
"p. c #E86B57",
"a. c #E86058",
"s. c #E26858",
"d. c #E26E5B",
"f. c #E3705B",
"g. c #E4715B",
"h. c #E9725C",
"j. c #EB745F",
"k. c #CB7766",
"l. c #DB7262",
"z. c #E27766",
"x. c #EC7464",
"c. c #E17B61",
"v. c #468A19",
"b. c #4D8A25",
"n. c #668E20",
"m. c #6B803A",
"M. c #76A322",
"N. c #8BAB3F",
"B. c #8AB430",
"V. c #96BE39",
"C. c #D2813C",
"Z. c #DBAC37",
"A. c #E0A439",
"S. c #E18040",
"D. c #D88E68",
"F. c #E18164",
"G. c #E38665",
"H. c #EA8562",
"J. c #EB8662",
"K. c #EF856C",
"L. c #EC9066",
"P. c #EE966A",
"I. c #EE9F6C",
"U. c #F08E70",
"Y. c #F29C76",
"T. c #EFB575",
"R. c #F1B875",
"E. c #F1B876",
"W. c #EDC87D",
"Q. c #F4CE80",
"!. c None",
/* pixels */
"!.!.!.!.!.!.!.!.!.!.!.!.!.!.!.!.!.!.!.!.!.!.!.!.!.!.!.!.!.!.!.!.!.!.!.!.!.!.!.!.",
"!.!.!.!.!.!.!.!.!.!.!.!.!.!.!.!.!.!.!.!.!.!.!.!.!.!.!.!.!.!.!.!.!.!.!.!.!.!.!.!.",
"!.!.!.!.!.!.!.!.!.!.!.!.!.!.!.!.!.!.!.!.!.!.!.!.!.!.!.!.!.!.!.!.!.!.!.!.!.!.!.!.",
"!.!.!.!.!.!.!.!.!.!.!.!.!.!.!.!.!.!.!.!.!.!.!.!.!.!.!.!.!.!.!.!.!.!.!.!.!.!.!.!.",
"!.!.!.!.!.!.!.!.!.!.!.!.!.!.!.!.!.!.!.!.!.!.!.!.!.!.!.!.!.!.!.!.!.!.!.!.!.!.!.!.",
"!.!.!.!.!.!.!.!.!.!.!.!.!.!.!.!.!.!.!.!.!.!.!.!.!.!.!.!.!.!.!.!.!.!.!.!.!.!.!.!.",
"!.!.!.!.!.!.!.!.!.!.!.!.!.!.!.!.!.!.!.!.!.!.!.!.!.!.!.!.!.!.!.!.!.!.!.!.!.!.!.!.",
"!.!.!.!.!.!.!.!.!.!.!.!.!.!.!.!.!.!.!.!.!.!.!.!.!.!.!.!.!.!.!.!.!.!.!.!.!.!.!.!.",
"!.!.!.!.!.!.!.!.!.!.!.!.!.!.!.!.!.!.!.!.!.!.!.!.!.!.!.!.!.!.!.!.!.!.!.!.!.!.!.!.",
"!.!.!.!.!.!.!.!.!.!.!.!.!.!.        !.!.        !.!.!.!.!.!.!.!.!.!.!.!.!.!.!.!.",
"!.!.!.!.!.!.!.!.!.!.!.!.!.!.  $ f y + !.g s t .   !.!.!.!.!.!.!.!.!.!.!.!.!.!.!.",
"!.!.!.!.!.!.!.!.!.!.!.!.!.!.  m.V.M.a # N.B.n.@   !.!.!.!.!.!.!.!.!.!.!.!.!.!.!.",
"!.!.!.!.!.!.!.!.!.!.!.!.!.!.!.d j v.i o b.l u O !.!.!.!.!.!.!.!.!.!.!.!.!.!.!.!.",
"!.!.!.!.!.!.!.!.!.!.!.!.!.!.!.  X h p > k r   !.!.!.!.!.!.!.!.!.!.!.!.!.!.!.!.!.",
"!.!.!.!.!.!.!.!.!.!.!.!.!.!.    * S B m F 9       !.!.!.!.!.!.!.!.!.!.!.!.!.!.!.",
"!.!.!.!.!.!.!.!.!.!.!.!.!.7 ! W D T L P O.( ^ ^ x   !.!.!.!.!.!.!.!.!.!.!.!.!.!.",
"!.!.!.!.!.!.!.!.!.!.!.!.4 c z.j.i.>.=.3.x.U.Y.K./ 5 !.!.!.!.!.!.!.!.!.!.!.!.!.!.",
"!.!.!.!.!.!.!.!.!.!.!.  ~ l.5.I.R.q.=.-.1.P.Q.h.e.k.z   !.!.!.!.!.!.!.!.!.!.!.!.",
"!.!.!.!.!.!.!.!.!.!.!.  Q a.;.d.c.2.=.=.=.s.F.8.7.w.6   !.!.!.!.!.!.!.!.!.!.!.!.",
"!.!.!.!.!.!.!.!.!.!.!.  N =.=.R U %.9.u.>.] I +.=.' 2   !.!.!.!.!.!.!.!.!.!.!.!.",
"!.!.!.!.!.!.!.!.!.!.!.  N =.=.%.#.*.L.E.u.&.@.*.=.' 2   !.!.!.!.!.!.!.!.!.!.!.!.",
"!.!.!.!.!.!.!.!.!.!.!.  M X.L.p.=.=.f.G.6.=.4.J.g.J <   !.!.!.!.!.!.!.!.!.!.!.!.",
"!.!.!.!.!.!.!.!.!.!.!.  v ..W.H.=.=.R I @.=.0.T.D.V ;   !.!.!.!.!.!.!.!.!.!.!.!.",
"!.!.!.!.!.!.!.!.!.!.!.!.% e  .| =.=.$.+.*.=.:.o.E & !.!.!.!.!.!.!.!.!.!.!.!.!.!.",
"!.!.!.!.!.!.!.!.!.!.!.!.  , A } y.<.=.=.=.r.t._ v   !.!.!.!.!.!.!.!.!.!.!.!.!.!.",
"!.!.!.!.!.!.!.!.!.!.!.!.  : Z C.A.,.&.&.&.S.Z.) q   !.!.!.!.!.!.!.!.!.!.!.!.!.!.",
"!.!.!.!.!.!.!.!.!.!.!.!.!.!.: b { Y I I I ` [ w = !.!.!.!.!.!.!.!.!.!.!.!.!.!.!.",
"!.!.!.!.!.!.!.!.!.!.!.!.!.!.  8 n G K K K V v % !.!.!.!.!.!.!.!.!.!.!.!.!.!.!.!.",
"!.!.!.!.!.!.!.!.!.!.!.!.!.!.!.  & C H H H 0   !.!.!.!.!.!.!.!.!.!.!.!.!.!.!.!.!.",
"!.!.!.!.!.!.!.!.!.!.!.!.!.!.!.!.!.1 3 3 3 - !.!.!.!.!.!.!.!.!.!.!.!.!.!.!.!.!.!.",
"!.!.!.!.!.!.!.!.!.!.!.!.!.!.!.!.!.        !.!.!.!.!.!.!.!.!.!.!.!.!.!.!.!.!.!.!.",
"!.!.!.!.!.!.!.!.!.!.!.!.!.!.!.!.!.!.!.!.!.!.!.!.!.!.!.!.!.!.!.!.!.!.!.!.!.!.!.!.",
"!.!.!.!.!.!.!.!.!.!.!.!.!.!.!.!.!.!.!.!.!.!.!.!.!.!.!.!.!.!.!.!.!.!.!.!.!.!.!.!.",
"!.!.!.!.!.!.!.!.!.!.!.!.!.!.!.!.!.!.!.!.!.!.!.!.!.!.!.!.!.!.!.!.!.!.!.!.!.!.!.!.",
"!.!.!.!.!.!.!.!.!.!.!.!.!.!.!.!.!.!.!.!.!.!.!.!.!.!.!.!.!.!.!.!.!.!.!.!.!.!.!.!.",
"!.!.!.!.!.!.!.!.!.!.!.!.!.!.!.!.!.!.!.!.!.!.!.!.!.!.!.!.!.!.!.!.!.!.!.!.!.!.!.!.",
"!.!.!.!.!.!.!.!.!.!.!.!.!.!.!.!.!.!.!.!.!.!.!.!.!.!.!.!.!.!.!.!.!.!.!.!.!.!.!.!.",
"!.!.!.!.!.!.!.!.!.!.!.!.!.!.!.!.!.!.!.!.!.!.!.!.!.!.!.!.!.!.!.!.!.!.!.!.!.!.!.!.",
"!.!.!.!.!.!.!.!.!.!.!.!.!.!.!.!.!.!.!.!.!.!.!.!.!.!.!.!.!.!.!.!.!.!.!.!.!.!.!.!.",
"!.!.!.!.!.!.!.!.!.!.!.!.!.!.!.!.!.!.!.!.!.!.!.!.!.!.!.!.!.!.!.!.!.!.!.!.!.!.!.!."
};
