/* XPM */
static char *result[] = {
/* columns rows colors chars-per-pixel */
"38 39 46 1 ",
"  c #211F30",
". c #2F2332",
"X c #342D37",
"o c #39343E",
"O c #422637",
"+ c #4C2C37",
"@ c #433138",
"# c #4E3138",
"$ c #54393C",
"% c #69313E",
"& c #763A3D",
"* c #594442",
"= c #5B4945",
"- c #5D4E49",
"; c #625852",
": c #675D58",
"> c #843346",
", c #8E3A45",
"< c #814B44",
"1 c #A14744",
"2 c #A44B46",
"3 c #A65048",
"4 c #A65149",
"5 c #A95449",
"6 c #AC584B",
"7 c #AB594C",
"8 c #AE5F4F",
"9 c #B1614F",
"0 c #B06452",
"q c #B36753",
"w c #B46550",
"e c #B66A52",
"r c #B66B53",
"t c #B96E54",
"y c #BB7458",
"u c #BB7559",
"i c #C08160",
"p c #C58A64",
"a c #C88E65",
"s c #CA936D",
"d c #CE9E7B",
"f c #D0A27D",
"g c #D3A780",
"h c #D8B185",
"j c #E7C499",
"k c None",
/* pixels */
"kkkkkkkkkkkkkkkkkkkkkkkkkkkkkkkkkkkkkk",
"kkkkkkkkkkkkkkkkkkkkkkkkkkkkkkkkkkkkkk",
"kkkkkkkkkkkkkkkkkkkkkkkkkkkkkkkkkkkkkk",
"kkkkkkkkkkkkkkkkkkkkkkkkkkkkkkkkkkkkkk",
"kkkkkkkkkkkkkkkkkkkkkkkkkkkkkkkkkkkkkk",
"kkkkkkkkkkkkkkkkkkkkkkkkkkkkkkkkkkkkkk",
"kkkkkk                          kkkkkk",
"kkkkk                            kkkkk",
"kkkkk                            kkkkk",
"kkkkk                            kkkkk",
"kkkkk               5tttta=      kkkkk",
"kkkkk               %&&&&<@      kkkkk",
"kkkkk    =$X-;;;;:  -;;;;:o      kkkkk",
"kkkkk    a9*sddddj  sddddj:      kkkkk",
"kkkkk    t1$92555f  92552d;      kkkkk",
"kkkkk    t1$98q55f  925q8d;      kkkkk",
"kkkkk    t1$90u93d  e99u0d;      kkkkk",
"kkkkk    t1$94752d  w5574d;      kkkkk",
"kkkkk    1>+5tttta  5tttta=      kkkkk",
"kkkkk                            kkkkk",
"kkkkk                            kkkkk",
"kkkkk      *sddhgj  sddddj:a9    kkkkk",
"kkkkk      $922i0d  92552d;t1    kkkkk",
"kkkkk      $977i0d  97yr7d;t1    kkkkk",
"kkkkk      $90up0d  90i00d;t1    kkkkk",
"kkkkk      $94784d  90i44d;t1    kkkkk",
"kkkkk      #69999s  6ry99s-5,    kkkkk",
"kkkkk      .#$$$$*  #$$$$*X+O    kkkkk",
"kkkkk      +5tttta               kkkkk",
"kkkkk      O,11119               kkkkk",
"kkkkk                            kkkkk",
"kkkkk                            kkkkk",
"kkkkk                            kkkkk",
"kkkkkk                          kkkkkk",
"kkkkkkkkkkkkkkkkkkkkkkkkkkkkkkkkkkkkkk",
"kkkkkkkkkkkkkkkkkkkkkkkkkkkkkkkkkkkkkk",
"kkkkkkkkkkkkkkkkkkkkkkkkkkkkkkkkkkkkkk",
"kkkkkkkkkkkkkkkkkkkkkkkkkkkkkkkkkkkkkk",
"kkkkkkkkkkkkkkkkkkkkkkkkkkkkkkkkkkkkkk"
};
