/* XPM */
static char *result[] = {
/* columns rows colors chars-per-pixel */
"40 40 157 2 ",
"   c #211F30",
".  c #221F30",
"X  c #231F30",
"o  c #371E35",
"O  c #3A1E36",
"+  c #3C1E36",
"@  c #3E1E37",
"#  c #21242E",
"$  c #233F26",
"%  c #223529",
"&  c #233828",
"*  c #353F2B",
"=  c #212030",
"-  c #222030",
";  c #3F2234",
":  c #393F33",
">  c #451F37",
",  c #421E38",
"<  c #441E38",
"1  c #471E39",
"2  c #491E39",
"3  c #4A1E3A",
"4  c #4B1E3A",
"5  c #4D1E3A",
"6  c #501D3B",
"7  c #591D3D",
"8  c #5A1D3D",
"9  c #5C1F3D",
"0  c #4D2336",
"q  c #4E2336",
"w  c #502437",
"e  c #552437",
"r  c #5A2538",
"t  c #6E273B",
"y  c #71273B",
"u  c #75233F",
"i  c #7A243F",
"p  c #276919",
"a  c #29691A",
"s  c #37671E",
"d  c #397819",
"f  c #234225",
"g  c #244524",
"h  c #2C4327",
"j  c #2D4527",
"k  c #3F4F27",
"l  c #36402B",
"z  c #38442B",
"x  c #344B2C",
"c  c #3B492B",
"v  c #3E4B2D",
"b  c #335922",
"n  c #4A472D",
"m  c #4B4B2B",
"M  c #43532B",
"N  c #465233",
"B  c #495435",
"V  c #506B25",
"C  c #537024",
"Z  c #526036",
"A  c #5C6E38",
"S  c #647C33",
"D  c #661D40",
"F  c #681D41",
"G  c #691D41",
"H  c #731C43",
"J  c #741D43",
"K  c #751D43",
"L  c #7A1C45",
"P  c #782A41",
"I  c #85293E",
"U  c #8C4A3C",
"Y  c #801C46",
"T  c #871C48",
"R  c #911B4A",
"E  c #941B4B",
"W  c #961B4C",
"Q  c #9A1B4C",
"!  c #9C1B4D",
"~  c #9D1B4D",
"^  c #9B1C4C",
"/  c #A11D4D",
"(  c #A51F4C",
")  c #A61F4C",
"_  c #8A2344",
"`  c #9A2347",
"'  c #962B40",
"]  c #9E2A43",
"[  c #A0204A",
"{  c #A2204A",
"}  c #A52548",
"|  c #AB224B",
" . c #AC224B",
".. c #A9204C",
"X. c #B02A47",
"o. c #BF2F46",
"O. c #BF2E47",
"+. c #B0244B",
"@. c #B5264A",
"#. c #B8274A",
"$. c #BA2949",
"%. c #BB294A",
"&. c #BE2A49",
"*. c #BC294A",
"=. c #BD294A",
"-. c #A83C49",
";. c #A83E4B",
":. c #C12F47",
">. c #C02B49",
",. c #C62D48",
"<. c #C92F48",
"1. c #CA2F48",
"2. c #CB2F48",
"3. c #CA3048",
"4. c #CB3048",
"5. c #CC3048",
"6. c #CD3249",
"7. c #CD334A",
"8. c #D0394C",
"9. c #D13B4D",
"0. c #D23F4F",
"q. c #D3404F",
"w. c #D64853",
"e. c #D74A54",
"r. c #D94F56",
"t. c #D95057",
"y. c #D95157",
"u. c #DD595B",
"i. c #DD5B5C",
"p. c #DF6862",
"a. c #E26661",
"s. c #E36862",
"d. c #E46A63",
"f. c #E56C64",
"g. c #E67166",
"h. c #28850F",
"j. c #29860F",
"k. c #448F15",
"l. c #459016",
"z. c #599519",
"x. c #6C981E",
"c. c #649F2B",
"v. c #668E30",
"b. c #6D833A",
"n. c #6E853B",
"m. c #699133",
"M. c #58A123",
"N. c #74A220",
"B. c #7EAA27",
"V. c #81A336",
"C. c #89AA3C",
"Z. c #95BF38",
"A. c #9FC73F",
"S. c #EF856F",
"D. c #F08870",
"F. c #F18B72",
"G. c None",
/* pixels */
"G.G.G.G.G.G.G.G.G.G.G.G.G.G.G.G.G.G.G.G.G.G.G.G.G.G.G.G.G.G.G.G.G.G.G.G.G.G.G.G.",
"G.G.G.G.G.G.G.G.G.G.G.G.G.G.G.G.G.G.G.G.G.G.G.G.G.G.G.G.G.G.G.G.G.G.G.G.G.G.G.G.",
"G.G.G.G.G.G.G.G.G.G.G.G.G.G.G.G.G.G.G.G.G.G.G.G.G.G.G.G.G.G.G.G.G.G.G.G.G.G.G.G.",
"G.G.G.G.G.G.G.G.G.G.G.G.G.G.G.G.G.G.G.G.G.G.G.G.G.G.G.G.G.G.G.G.G.G.G.G.G.G.G.G.",
"G.G.G.G.G.G.G.G.G.G.G.G.G.G.G.G.G.G.G.G.G.G.G.G.G.G.G.G.G.G.G.G.G.G.G.G.G.G.G.G.",
"G.G.G.G.G.G.G.G.G.G.G.G.G.G.G.G.G.G.G.G.G.G.G.G.G.G.G.G.G.G.G.G.G.G.G.G.G.G.G.G.",
"G.G.G.G.G.G.G.G.G.G.G.G.G.G.G.G.G.G.G.G.G.G.G.G.G.G.G.G.G.G.G.G.G.G.G.G.G.G.G.G.",
"G.G.G.G.G.G.G.G.G.G.G.G.G.G.G.G.G.G.G.G.G.G.G.G.G.G.G.G.G.G.G.G.G.G.G.G.G.G.G.G.",
"G.G.G.G.G.G.G.G.G.G.G.G.G.G.G.G.G.G.G.G.G.G.G.G.G.G.G.G.G.G.G.G.G.G.G.G.G.G.G.G.",
"G.G.G.G.G.G.G.G.G.G.G.G.G.G.G.G.            G.G.G.G.G.G.G.G.G.G.G.G.G.G.G.G.G.G.",
"G.G.G.G.G.G.G.G.G.G.G.G.G.G.G.G.  : b.n.S V l G.G.G.G.G.G.G.G.G.G.G.G.G.G.G.G.G.",
"G.G.G.G.G.G.G.G.G.G.G.G.G.G.G.G.  N Z.C.V.B.v   G.G.G.G.G.G.G.G.G.G.G.G.G.G.G.G.",
"G.G.G.G.G.G.G.G.G.G.G.G.G.G.G.G.  c N.M Z A.B   G.G.G.G.G.G.G.G.G.G.G.G.G.G.G.G.",
"G.G.G.G.G.G.G.G.G.G.G.G.G.G.G.G.  h k.j x M.m.A   G.G.G.G.G.G.G.G.G.G.G.G.G.G.G.",
"G.G.G.G.G.G.G.G.G.G.G.G.G.G.G.G.* b h.f & p c.v.z G.G.G.G.G.G.G.G.G.G.G.G.G.G.G.",
"G.G.G.G.G.G.G.G.G.G.G.G.G.G.G.  C z.j.f = # a l.x.z   G.G.G.G.G.G.G.G.G.G.G.G.G.",
"G.G.G.G.G.G.G.G.G.G.G.G.G.G.G.  s d g % G.G.$ n U P 7   G.G.G.G.G.G.G.G.G.G.G.G.",
"G.G.G.G.G.G.G.G.G.G.G.G.G.G.o 1 m k - G.G.G.w u | | _ e G.G.G.G.G.G.G.G.G.G.G.G.",
"G.G.G.G.G.G.G.G.G.G.G.G.G.  < W ^ K . G.G.X ' 3.4.4.4.o.q   G.G.G.G.G.G.G.G.G.G.",
"G.G.G.G.G.G.G.G.G.G.G.G.  y ] $.*.} H < < J X.5.6.i.f.p.-.t   G.G.G.G.G.G.G.G.G.",
"G.G.G.G.G.G.G.G.G.G.G.; r ;.r.r.9.=.~ 3 4 ~ =.5.7.g.F.S.w.I   G.G.G.G.G.G.G.G.G.",
"G.G.G.G.G.G.G.G.G.G.  q :.s.F.F.y.=.~ 3 4 ~ =.5.7.g.F.S.w.I   G.G.G.G.G.G.G.G.G.",
"G.G.G.G.G.G.G.G.G.G.  q :.s.F.F.y.=.~ 3 4 ~ =.5.7.g.F.S.w.I   G.G.G.G.G.G.G.G.G.",
"G.G.G.G.G.G.G.G.G.G.  q :.s.F.F.y.=.~ 3 4 ~ =.5.6.u.d.a.0.I   G.G.G.G.G.G.G.G.G.",
"G.G.G.G.G.G.G.G.G.G.  q :.a.D.D.t.=.~ 3 4 ~ =.5.5.5.5.5.5.I   G.G.G.G.G.G.G.G.G.",
"G.G.G.G.G.G.G.G.G.G.  q :.q.e.e.8.=.~ 3 4 ~ =.5.5.5.5.5.5.I   G.G.G.G.G.G.G.G.G.",
"G.G.G.G.G.G.G.G.G.G.  q :.5.5.5.5.=.~ 3 4 ! +.>.5.5.5.2.&.i   G.G.G.G.G.G.G.G.G.",
"G.G.G.G.G.G.G.G.G.G.  0 O.2.5.5.1.%.~ 6 5 E Q  .<.<.<.,.{ D   G.G.G.G.G.G.G.G.G.",
"G.G.G.G.G.G.G.G.G.G.  > [ &.5.5.@.( ! T F , Y / ......{ 9 + G.G.G.G.G.G.G.G.G.G.",
"G.G.G.G.G.G.G.G.G.G.G.+ D ` #.#.) ! ! L 7 X 8 G G G G D + G.G.G.G.G.G.G.G.G.G.G.",
"G.G.G.G.G.G.G.G.G.G.G.G.  F R R R R R 2   G.            G.G.G.G.G.G.G.G.G.G.G.G.",
"G.G.G.G.G.G.G.G.G.G.G.G.G.O @ @ @ @ @ G.G.G.G.G.G.G.G.G.G.G.G.G.G.G.G.G.G.G.G.G.",
"G.G.G.G.G.G.G.G.G.G.G.G.G.G.          G.G.G.G.G.G.G.G.G.G.G.G.G.G.G.G.G.G.G.G.G.",
"G.G.G.G.G.G.G.G.G.G.G.G.G.G.G.G.G.G.G.G.G.G.G.G.G.G.G.G.G.G.G.G.G.G.G.G.G.G.G.G.",
"G.G.G.G.G.G.G.G.G.G.G.G.G.G.G.G.G.G.G.G.G.G.G.G.G.G.G.G.G.G.G.G.G.G.G.G.G.G.G.G.",
"G.G.G.G.G.G.G.G.G.G.G.G.G.G.G.G.G.G.G.G.G.G.G.G.G.G.G.G.G.G.G.G.G.G.G.G.G.G.G.G.",
"G.G.G.G.G.G.G.G.G.G.G.G.G.G.G.G.G.G.G.G.G.G.G.G.G.G.G.G.G.G.G.G.G.G.G.G.G.G.G.G.",
"G.G.G.G.G.G.G.G.G.G.G.G.G.G.G.G.G.G.G.G.G.G.G.G.G.G.G.G.G.G.G.G.G.G.G.G.G.G.G.G.",
"G.G.G.G.G.G.G.G.G.G.G.G.G.G.G.G.G.G.G.G.G.G.G.G.G.G.G.G.G.G.G.G.G.G.G.G.G.G.G.G.",
"G.G.G.G.G.G.G.G.G.G.G.G.G.G.G.G.G.G.G.G.G.G.G.G.G.G.G.G.G.G.G.G.G.G.G.G.G.G.G.G."
};
