/* XPM */
static char *result[] = {
/* columns rows colors chars-per-pixel */
"39 40 95 2 ",
"   c #211F30",
".  c #262131",
"X  c #292132",
"o  c #2C2132",
"O  c #2D2133",
"+  c #2F2332",
"@  c #352533",
"#  c #372335",
"$  c #382534",
"%  c #392634",
"&  c #3B2734",
"*  c #322834",
"=  c #342D37",
"-  c #362E37",
";  c #3D2834",
":  c #3D2A35",
">  c #3F2F37",
",  c #452837",
"<  c #482A37",
"1  c #4C2C37",
"2  c #4D283A",
"3  c #403138",
"4  c #433138",
"5  c #43363B",
"6  c #4E3138",
"7  c #483B3E",
"8  c #51353A",
"9  c #5A3139",
"0  c #54393C",
"q  c #563F3F",
"w  c #69313E",
"e  c #70353E",
"r  c #763A3D",
"t  c #594442",
"y  c #5B4945",
"u  c #514A4D",
"i  c #5D4E49",
"p  c #654240",
"a  c #7C4241",
"s  c #6E574C",
"d  c #625852",
"f  c #655A55",
"g  c #675D58",
"h  c #814B44",
"j  c #9B4344",
"k  c #9E4544",
"l  c #865448",
"z  c #8B5E4E",
"x  c #A14744",
"c  c #A04B48",
"v  c #A65048",
"b  c #A65149",
"n  c #A95449",
"m  c #A8564B",
"M  c #AC584B",
"N  c #AB594C",
"B  c #AB5A4D",
"V  c #AE5D4D",
"C  c #AE5F4F",
"Z  c #906954",
"A  c #957459",
"S  c #B1614F",
"D  c #B16250",
"F  c #B06452",
"G  c #B36753",
"H  c #B46550",
"J  c #B66A52",
"K  c #B66B53",
"L  c #B66C54",
"P  c #B66D56",
"I  c #B96E54",
"U  c #B97056",
"Y  c #BB7458",
"T  c #BB765A",
"R  c #BA765F",
"E  c #BD7A5E",
"W  c #827469",
"Q  c #9A7D62",
"!  c #B77260",
"~  c #BD7B63",
"^  c #C07E5D",
"/  c #C07F5E",
"(  c #9E876C",
")  c #A39075",
"_  c #A8957A",
"`  c #C08160",
"'  c #C28467",
"]  c #C88E65",
"[  c #CA936D",
"{  c #CF9E6E",
"}  c #CC9874",
"|  c #CE9E7B",
" . c #AD9A80",
".. c #DAB18A",
"X. c #E7C499",
/* pixels */
"= i d d d f u 4 t y y y y y y y y y y y y y y y y y y y y y y t * 7 d d d d g ",
"t [ | | | .. .h / ] ] ] ] ] ] ] ] ] ] ] ] ] ] ] ] ] ] ] ] ] ] / 8 Z | | | | X.",
"0 S M S S ' ) r S I I I I I I I I I I I I I I I I I I I I I I S 1 l x S S v | ",
"0 S T G n ~ ) r v n V I I I I H n n n n H V I I I I I I I n H v 1 l x n G C | ",
"0 S ` ^ I ! ) r x I I I I I I I I I I I I I I I I I I I I I I S 1 l I I ^ F | ",
"8 V n n n R ( e k x x x x x x x x x x x x x x x x x x x x x x k < h n n n n } ",
"; a l l l z s 2 e r r r r r r r r r r r r r r r r r r r r r r e # 9 l l l l Z ",
"4 h r r r e 2 s z                                     9 h l l z 7 2 r r r r h ",
"t / v x x k e z D                                     w c n n D q e x x x M / ",
"y ] n x x x r l n                                                 r x x x S ] ",
"y ] V H x x r l n                                                 r x n H H ] ",
"y ] H J x x r h c                                                 r x n I I ] ",
"y ] H J x x r ; ,                                                 r x n I I ] ",
"y ] I I x x r                                                     r x n I I ] ",
"y ] I I x x r                                                     r x n I I ] ",
"y ] V H x x r                                                     r x n J J ] ",
"y ] H J x x r                                                     r x n H H ] ",
"y ] n S x x r                                                     r x n H H ] ",
"y ] n S x x r                                                     r x n S S ] ",
"y ] n S x x r                                                     r x n I I ] ",
"y ] V H x x r                                                     r x n S S ] ",
"y ] I I x x r                                                     r x n S S ] ",
"y ] I I x x r                                                     r x n S S ] ",
"y ] V H x x r                                                     r x n S S ] ",
"y ] I I x x r                                                     r x n S S ] ",
"y ] I I x x r                                                     r x n I I ] ",
"y ] I I x x r                                                     r x n I I ] ",
"y ] I I x x r                                               4 z 7 r x n I I ] ",
"y ] I I x x r                                               6 D q r x n H H ] ",
"y ] I I x x r                                               1 n 0 r x n I I ] ",
"y ] n M x x r 7 q 0 0 8 +                                   1 n 0 r x v M S ] ",
"t / v x x k e Z U S S m <                                   < c 8 e x x x M / ",
"* 8 1 1 1 < # 4 6 1 1 < o                                   o , + # 1 1 1 1 8 ",
"7 Q ) ) ) _ W p Z A A A A A A A A A A A A A A A A A A A A A A Z 4 s ) ) ) )  .",
"0 S x x { ! ) r S I I I I I I I I I I I I I I I I I I I I I I S 1 l x x x x | ",
"0 S L N { ! ) r M S J H I I I I I H J S S S S J S I I I I I S M 1 l x Y K N | ",
"0 S ` P { ! ) r x n H V I I I I I V H n n n n H n I I I I I v x 1 l x ` F F | ",
"0 S B N F ! ) r x n n n n n n n n n n n n n n n n n n n n n v x 1 l x ` b b | ",
"6 M S S S E Q w j x x x x x x x x x x x x x x x x x x x x x x j , a S Y S S [ ",
". : > > > 3 - O % & & & & & & & & & & & & & & & & & & & & & & $ X @ > > > > 5 "
};
