/* XPM */
static char *result[] = {
/* columns rows colors chars-per-pixel */
"40 40 195 2 ",
"   c #211F30",
".  c #21242E",
"X  c #23252F",
"o  c #25252F",
"O  c #222D2B",
"+  c #222E2B",
"@  c #233D27",
"#  c #22332A",
"$  c #223429",
"%  c #233629",
"&  c #28312C",
"*  c #2D332D",
"=  c #2E332D",
"-  c #233928",
";  c #252430",
":  c #272730",
">  c #2C2D31",
",  c #333731",
"<  c #25561E",
"1  c #255B1D",
"2  c #25581E",
"3  c #2A581F",
"4  c #25601B",
"5  c #26631A",
"6  c #2B611D",
"7  c #266B18",
"8  c #277315",
"9  c #277016",
"0  c #277614",
"q  c #277714",
"w  c #277913",
"e  c #244723",
"r  c #244B22",
"t  c #244D21",
"y  c #244F21",
"u  c #45771D",
"i  c #576637",
"p  c #5E7038",
"a  c #49354B",
"s  c #5B3959",
"d  c #5B3B58",
"f  c #5E4159",
"g  c #7F7E5E",
"h  c #6E4066",
"j  c #6F4166",
"k  c #814673",
"l  c #824874",
"z  c #837F67",
"x  c #97647F",
"c  c #28850F",
"v  c #28860F",
"b  c #288111",
"n  c #288210",
"m  c #288410",
"M  c #2E8714",
"N  c #2F8715",
"B  c #36871B",
"V  c #3A881E",
"C  c #3F8823",
"Z  c #448817",
"A  c #4A831A",
"S  c #4A8C18",
"D  c #418925",
"F  c #5E8022",
"G  c #508D2B",
"H  c #608223",
"J  c #668E20",
"K  c #688F21",
"L  c #648F3D",
"P  c #7A9937",
"I  c #7D9D34",
"U  c #638B41",
"Y  c #6D8D4A",
"T  c #768D52",
"R  c #778E53",
"E  c #7E8F58",
"W  c #86A937",
"Q  c #819942",
"!  c #8B9D44",
"~  c #8C9A4B",
"^  c #808F5A",
"/  c #818F5B",
"(  c #8D9165",
")  c #AE9F66",
"_  c #BC9E77",
"`  c #B0A168",
"'  c #BDA178",
"]  c #C4C17D",
"[  c #944E81",
"{  c #9D5287",
"}  c #9E5487",
"|  c #AF5B93",
" . c #B55B98",
".. c #B65F98",
"X. c #BC5E9D",
"o. c #976580",
"O. c #986881",
"+. c #997888",
"@. c #997B8A",
"#. c #BE7D99",
"$. c #BC41B0",
"%. c #C0619F",
"&. c #C84FB3",
"*. c #CB51B4",
"=. c #CA57B4",
"-. c #CB57B4",
";. c #CF55B5",
":. c #C95AB2",
">. c #CE58B5",
",. c #D057B5",
"<. c #D157B6",
"1. c #C160A0",
"2. c #C361A2",
"3. c #C564A3",
"4. c #CA64A7",
"5. c #CE66AA",
"6. c #D168AB",
"7. c #D368AD",
"8. c #D271AD",
"9. c #D060B5",
"0. c #D760B7",
"q. c #D464B6",
"w. c #D56CB3",
"e. c #D868B7",
"r. c #DC6BB4",
"t. c #D961B8",
"y. c #DA60B8",
"u. c #DD64B9",
"i. c #DE64B9",
"p. c #D96BB8",
"a. c #DA6DB8",
"s. c #E16FB6",
"d. c #E167BA",
"f. c #E36ABB",
"g. c #E56BBB",
"h. c #E16DBA",
"j. c #E36EBB",
"k. c #E56CBC",
"l. c #E86FBC",
"z. c #E479B6",
"x. c #E27CB5",
"c. c #E670BB",
"v. c #E577B8",
"b. c #E775BA",
"n. c #E871BC",
"m. c #E970BD",
"M. c #EA71BD",
"N. c #EB73BD",
"B. c #EB74BD",
"V. c #EA75BD",
"C. c #EB75BD",
"Z. c #EC76BD",
"A. c #EC77BD",
"S. c #E27CBA",
"D. c #EB7ABC",
"F. c #EA7BBD",
"G. c #EC78BD",
"H. c #ED7ABE",
"J. c #EB7EBC",
"K. c #EF7FBE",
"L. c #AF9482",
"P. c #B58090",
"I. c #BA8294",
"U. c #C09680",
"Y. c #C29187",
"T. c #C6809F",
"R. c #C5869C",
"E. c #CF82A5",
"W. c #D484A8",
"Q. c #D986AC",
"!. c #DA86AD",
"~. c #D988AB",
"^. c #DA99A6",
"/. c #E29CA7",
"(. c #EC80BD",
"). c #EF81BE",
"_. c #EB88BD",
"`. c #F083BE",
"'. c #EB97B7",
"]. c #EE9BB7",
"[. c #ED94B9",
"{. c #F290BD",
"}. c #F190BE",
"|. c #F293BE",
" X c #F491BF",
".X c #F695BF",
"XX c #F19CB8",
"oX c #CEC18C",
"OX c #F594C0",
"+X c #F696C0",
"@X c #F698C1",
"#X c #F598C2",
"$X c #F9B5CC",
"%X c #F9BACE",
"&X c None",
/* pixels */
"&X&X&X&X&X&X&X&X&X&X&X&X&X&X&X&X&X&X&X&X&X&X&X&X&X&X&X&X&X&X&X&X&X&X&X&X&X&X&X&X",
"&X&X&X&X&X&X&X&X&X&X&X&X&X&X&X&X&X&X&X&X&X&X&X&X&X&X&X&X&X&X&X&X&X&X&X&X&X&X&X&X",
"&X&X&X&X&X&X&X&X&X&X&X&X&X&X&X&X&X&X&X&X&X&X&X&X&X&X&X&X&X&X&X&X&X&X&X&X&X&X&X&X",
"&X&X&X&X&X&X&X&X&X&X&X&X&X&X&X&X&X&X&X&X&X&X&X&X&X&X&X&X&X&X&X&X&X&X&X&X&X&X&X&X",
"&X&X&X&X&X&X&X&X&X&X&X&X&X&X&X&X&X&X&X&X&X&X&X&X&X&X&X&X&X&X&X&X&X&X&X&X&X&X&X&X",
"&X&X&X&X&X&X&X&X&X&X&X&X&X&X&X&X&X&X&X&X&X&X&X&X&X&X&X&X&X&X&X&X&X&X&X&X&X&X&X&X",
"&X&X&X&X&X&X&X&X&X&X&X&X&X&X&X&X&X&X&X&X&X&X&X&X&X&X&X&X&X&X&X&X&X&X&X&X&X&X&X&X",
"&X&X&X&X&X&X&X&X&X&X&X&X&X&X&X&X&X&X&X&X&X&X&X&X&X&X&X&X&X&X&X&X&X&X&X&X&X&X&X&X",
"&X&X&X&X&X&X&X&X&X&X&X&X&X&X&X&X&X&X&X&X&X&X&X&X&X&X&X&X&X&X&X&X&X&X&X&X&X&X&X&X",
"&X&X&X&X&X&X&X&X&X&X&X&X&X&X&X&X&X&X&X&X&X&X&X&X&X&X&X&X&X&X&X&X&X&X&X&X&X&X&X&X",
"&X&X&X&X&X&X&X&X&X                                                  &X&X&X&X&X&X",
"&X&X&X&X&X&X&X&X&X> p z +.o.x x x x x x x x x x x x x x x O.@.g i ; &X&X&X&X&X&X",
"&X&X&X&X&X&X&X&X&X, W oX$XOXW.W. X X X X X X X X X X{.E.Q.#X%X] P : &X&X&X&X&X&X",
"&X&X&X&X&X&X&X&X&X= K ' OXC.h j N.N.N.N.N.N.N.N.N.N.s.s l H.@X` H o &X&X&X&X&X&X",
"&X&X&X&X&X&X&X&X&X* J _  XN.X.X.M.M.M.M.M.M.M.M.M.M.c. .2.A.+X) F o &X&X&X&X&X&X",
"&X&X&X&X&X&X&X&X&X* J _  XN.M.Z.K.C.M.M.M.M.M.M.M.Z.K.C.M.A.+X) F o &X&X&X&X&X&X",
"&X&X&X&X&X&X&X&X&X* J _  Xn.m.J.[.D.M.M.M.M.M.M.M.J.[.D.m.V..X) F o &X&X&X&X&X&X",
"&X&X&X&X&X&X&X&X&X* J _ _.&.u...f 3.M.M.M.M.M.M.M...f 3.y.>.}.) F o &X&X&X&X&X&X",
"&X&X&X&X&X&X&X&X&X& A ~ Y.w.j.2.k 5.H.).B.M.Z.`.G.2.k 5.h.8.U.Q u X &X&X&X&X&X&X",
"&X&X&X&X&X&X&X&X&X+ 7 S ! XXF.k.M.M.x.!.b.M.v.~.z.M.M.g.(./.I Z 5 . &X&X&X&X&X&X",
"&X&X&X&X&X&X&X&X&X&X+ 6 L ].q.;.M.M.} d 6.M.%.a | M.l.*.a.^.G 3 + &X&X&X&X&X&X&X",
"&X&X&X&X&X&X&X&X&X&X  2 C / #.e.<.f.1.{ r.M.7.[ 4.d.,.p.P.R B t   &X&X&X&X&X&X&X",
"&X&X&X&X&X&X&X&X&X&X  y 8 c ( T.-.t.i.i.i.i.i.i.i.0.:.R.E n 9 e   &X&X&X&X&X&X&X",
"&X&X&X&X&X&X&X&X&X&X&X. @ b N T |.=.$.$.$.$.$.$.$.9.'.U M q # &X&X&X&X&X&X&X&X&X",
"&X&X&X&X&X&X&X&X&X&X&X  - b v D T T.S.S.S.S.S.S.S.I.Y V v 0 + &X&X&X&X&X&X&X&X&X",
"&X&X&X&X&X&X&X&X&X&X&X&X% 4 w v N ( L.L.L.L.L.L.L.^ v v 0 1 O &X&X&X&X&X&X&X&X&X",
"&X&X&X&X&X&X&X&X&X&X&X&X&X  4 b b c v v v v v v v m b b <   &X&X&X&X&X&X&X&X&X&X",
"&X&X&X&X&X&X&X&X&X&X&X&X&X&X% - @ 8 v v v v v v v 7 - - $ &X&X&X&X&X&X&X&X&X&X&X",
"&X&X&X&X&X&X&X&X&X&X&X&X&X&X&X  . y 2 2 2 2 2 2 2 r     &X&X&X&X&X&X&X&X&X&X&X&X",
"&X&X&X&X&X&X&X&X&X&X&X&X&X&X&X&X&X                  &X&X&X&X&X&X&X&X&X&X&X&X&X&X",
"&X&X&X&X&X&X&X&X&X&X&X&X&X&X&X&X&X&X&X&X&X&X&X&X&X&X&X&X&X&X&X&X&X&X&X&X&X&X&X&X",
"&X&X&X&X&X&X&X&X&X&X&X&X&X&X&X&X&X&X&X&X&X&X&X&X&X&X&X&X&X&X&X&X&X&X&X&X&X&X&X&X",
"&X&X&X&X&X&X&X&X&X&X&X&X&X&X&X&X&X&X&X&X&X&X&X&X&X&X&X&X&X&X&X&X&X&X&X&X&X&X&X&X",
"&X&X&X&X&X&X&X&X&X&X&X&X&X&X&X&X&X&X&X&X&X&X&X&X&X&X&X&X&X&X&X&X&X&X&X&X&X&X&X&X",
"&X&X&X&X&X&X&X&X&X&X&X&X&X&X&X&X&X&X&X&X&X&X&X&X&X&X&X&X&X&X&X&X&X&X&X&X&X&X&X&X",
"&X&X&X&X&X&X&X&X&X&X&X&X&X&X&X&X&X&X&X&X&X&X&X&X&X&X&X&X&X&X&X&X&X&X&X&X&X&X&X&X",
"&X&X&X&X&X&X&X&X&X&X&X&X&X&X&X&X&X&X&X&X&X&X&X&X&X&X&X&X&X&X&X&X&X&X&X&X&X&X&X&X",
"&X&X&X&X&X&X&X&X&X&X&X&X&X&X&X&X&X&X&X&X&X&X&X&X&X&X&X&X&X&X&X&X&X&X&X&X&X&X&X&X",
"&X&X&X&X&X&X&X&X&X&X&X&X&X&X&X&X&X&X&X&X&X&X&X&X&X&X&X&X&X&X&X&X&X&X&X&X&X&X&X&X",
"&X&X&X&X&X&X&X&X&X&X&X&X&X&X&X&X&X&X&X&X&X&X&X&X&X&X&X&X&X&X&X&X&X&X&X&X&X&X&X&X"
};
