/* XPM */
static char *result[] = {
/* columns rows colors chars-per-pixel */
"40 40 175 2 ",
"   c #3F3851",
".  c #423C55",
"X  c #4B3C52",
"o  c #513853",
"O  c #5B3952",
"+  c #783F4F",
"@  c #693854",
"#  c #39425B",
"$  c #37455E",
"%  c #364C63",
"&  c #315169",
"*  c #355C6D",
"=  c #385265",
"-  c #2B5B73",
";  c #38626F",
":  c #2B667A",
">  c #3C6A72",
",  c #326273",
"<  c #454259",
"1  c #49445C",
"2  c #4B485F",
"3  c #4A4054",
"4  c #584859",
"5  c #77404F",
"6  c #654D5B",
"7  c #764C56",
"8  c #764552",
"9  c #6C545C",
"0  c #73565B",
"q  c #4B4B63",
"w  c #574D60",
"e  c #4D5169",
"r  c #525167",
"t  c #51546A",
"y  c #5C596D",
"u  c #585C71",
"i  c #655868",
"p  c #715E68",
"a  c #615C70",
"s  c #5D6377",
"d  c #7D676E",
"f  c #786868",
"g  c #7B716C",
"h  c #833657",
"j  c #8E3658",
"k  c #903658",
"l  c #A43D52",
"z  c #A43759",
"x  c #B23E52",
"c  c #86404D",
"v  c #AA444B",
"b  c #A44448",
"n  c #B5434E",
"m  c #BC464B",
"M  c #966257",
"N  c #BB645B",
"B  c #B56854",
"V  c #B87057",
"C  c #BA7C5F",
"Z  c #8F6963",
"A  c #926E6F",
"S  c #9C6A68",
"D  c #8F7061",
"F  c #907868",
"G  c #987D7C",
"H  c #A36160",
"J  c #AD746C",
"K  c #A3736E",
"L  c #B2776D",
"P  c #A77E79",
"I  c #C8474A",
"U  c #D4454D",
"Y  c #DB4A4A",
"T  c #DE524D",
"R  c #D4524E",
"E  c #C34051",
"W  c #DA5750",
"Q  c #CD5953",
"!  c #E15A51",
"~  c #CB6A50",
"^  c #CE7B59",
"/  c #DF725F",
"(  c #CA644D",
")  c #E56456",
"_  c #EA6C5A",
"`  c #E66959",
"'  c #E5745F",
"]  c #EE745E",
"[  c #DD7B70",
"{  c #EE7861",
"}  c #F07760",
"|  c #F07960",
" . c #928474",
".. c #A9886A",
"X. c #BB8665",
"o. c #BD946D",
"O. c #B7936E",
"+. c #B88479",
"@. c #BFA179",
"#. c #EE8257",
"$. c #EF8A5A",
"%. c #D38766",
"&. c #D39F6F",
"*. c #CD8674",
"=. c #D1917E",
"-. c #CA8F67",
";. c #F38667",
":. c #F19B65",
">. c #EB896B",
",. c #C9A072",
"<. c #D4A975",
"1. c #D4AA77",
"2. c #F2A069",
"3. c #EFBC7A",
"4. c #F5B575",
"5. c #F6BE7B",
"6. c #E8A26C",
"7. c #F6C27D",
"8. c #2D7B85",
"9. c #2A7886",
"0. c #5C768C",
"q. c #647C91",
"w. c #2A848D",
"e. c #298A91",
"r. c #2D9494",
"t. c #319C97",
"y. c #33A199",
"u. c #75818F",
"i. c #6D889B",
"p. c #74899B",
"a. c #738DA0",
"s. c #7A93A5",
"d. c #94878E",
"f. c #AC8B85",
"g. c #A08E8D",
"h. c #A4918E",
"j. c #B8968D",
"k. c #859FAD",
"l. c #8597A2",
"z. c #87A2AF",
"x. c #8DA1AB",
"c. c #8CA9B5",
"v. c #8CA6B2",
"b. c #94AFB8",
"n. c #95B1BB",
"m. c #9AB3BB",
"M. c #B3B3BB",
"N. c #CD9A89",
"B. c #EE9C84",
"V. c #C2B088",
"C. c #C2A093",
"Z. c #DDAF9B",
"A. c #EEAC95",
"S. c #E5B09C",
"D. c #C2AEA3",
"F. c #CCB7AA",
"G. c #EDB7A1",
"H. c #E2BAA5",
"J. c #DACA96",
"K. c #EBCB8E",
"L. c #F3CE8D",
"P. c #FDE49E",
"I. c #E6C5AF",
"U. c #EDC2AC",
"Y. c #ECD4BE",
"T. c #E8CBB5",
"R. c #FEEAA5",
"E. c #9FB9C0",
"W. c #A3BCC2",
"Q. c #B1CACE",
"!. c #ACC3C8",
"~. c #C7D5D8",
"^. c #D9E2E3",
"/. c #E5EAEB",
"(. c None",
/* pixels */
"(.(.(.(.(.(.(.(.(.(.(.(.(.(.(.(.(.(.(.(.(.(.(.(.  q.z.c.c.c.c.c.c.c.c.c.m.l.. (.",
"(.(.(.(.(.(.(.(.(.(.(.(.(.(.(.(.(.(.(.(.(.(.(.(.. 0.a.s.s.s.s.s.s.s.s.s.k.p.. (.",
"(.(.(.(.(.(.(.(.(.(.(.(.(.(.(.(.(.(.(.(.(.(.(.(.(.q e t t e t t e t e t t t (.(.",
"(.(.(.(.(.(.(.(.(.(.(.(.(.(.(.(.(.(.(.(.(.(.(.(.(.(.(.(.(.        . (.(.(.(.(.(.",
"(.(.(.(.(.(.(.(.(.(.(.(.(.(.(.(.(.(.(.(.(.(.(.(.(.(.(.(.(.(.      (.(.(.(.(.(.(.",
"(.(.(.(.(.(.(.(.(.(.(.(.(.(.(.(.(.(.(.(.(.(.(.(.(.(.(.(.(.(.. q . (.(.(.(.(.(.(.",
"(.(.(.(.(.(.(.(.(.(.(.(.(.(.(.(.(.(.(.(.(.(.(.(.(.(.(.(.(.(.< 0.. (.(.(.(.(.(.(.",
"(.(.(.(.(.(.(.(.(.(.(.(.(.(.(.(.(.(.(.(.(.(.(.(.(.(.(.(.(.(.q q.. (.(.(.(.(.(.(.",
"(.(.(.(.(.(.(.(.(.(.(.(.(.(.(.(.(.(.(.(.(.(.(.(.(.(.(.(.(.(.q z.. (.(.(.(.(.(.(.",
"(.(.(.(.(.(.(.(.(.              (.(.. .         (.  (.(.(.(.q z.< (.(.(.(.(.(.(.",
"(.(.(.(.(.(.(.(.  b B V V X.o.V X   M X.o.@.V.O.3 ..0 (.(.(.q z.. (.(.(.(.(.(.(.",
"(.(.(.(.(.(.(.(.  ( ] $.#.:.3.6.X   X.5.,.F  .D ..K.g (.(.(.r n.< (.(.(.(.(.(.(.",
"(.(.(.(.(.(.(.(.  ^ $.$.$.:.7.3.M D 1.7.-.7 X M L.R.g (.(.(.r W.< (.(.(.(.(.(.(.",
"(.(.(.(.(.(.(.(.  ~ #.#.$.:.7.7.$.5.7.7.4.-.D 2.R.P.g (.(.(.t m.< (.(.(.(.(.(.(.",
"(.(.(.(.(.(.(.(.  b ~ ^ ^ -.<.&.^ &.<.<.<.<.1.1.J.1.9 (.(.(.t !.< (.(.(.(.(.(.(.",
"(.(.(.(.(.(.(.(.. . X 3     . . . . . . < < <   < . 3 (.(.(.a /.1 (.(.(.(.(.(.(.",
"(.(.(.(.(.(.(.. 0.q.p.a.u q q.p.p.b.s u.m.W.x.< m.r M.d.  (.t W.< (.(.(.(.(.(.(.",
"(.(.(.(.(.(.(.  q q q q <   q q q r < 1 t t r   r . w 1   (.y ^.1 (.(.(.(.(.(.(.",
"(.(.(.(.(.(.(.    h l v v v v v v v H P f.f.f.f.f.K 4 . . (.a /.1 (.(.(.(.(.(.(.",
"(.(.(.(.(.(.(.(.  x U Y Y Y ! ) T [ S j.I.I.I.I.I.A 3 . (.(.a /.1 (.(.(.(.(.(.(.",
"(.(.(.(.(.(.(.(.  m Y Y Y T _ } _ S.h.D.U.A.A.A.A.d.w (.(.(.y ~.3 (.(.(.(.(.(.(.",
"(.(.(.(.(.(.(.(.  x U Y Y ! } } ] A.G.S.B.' N N ] A.f (.(.(.r W.< (.(.(.(.(.(.(.",
"(.(.(.(.(.(.(.(.  k x m I ! } } | | | ;.| N . X ' ] 7 (.(.(.r m.< (.(.(.(.(.(.(.",
"(.(.(.(.(.(.(.(.      . + W } } | ] | ;.;.N X X ' | 7 (.(.(.q z.. (.(.(.(.(.(.(.",
"(.(.(.(.(.(.    .     . . 5 ! T } | } | | _ n X ' | 7 (.(.(.q z.< (.(.(.(.(.(.(.",
"(.(.(.(.(.p C.F.F.C.L 0   + Y Y } } } } | | >.%.| | 8 . .   q z.. (.(.(.(.(.(.(.",
"(.(.(.(.(.p H.Y.Y.T.S.+.0 @ x + ) W _ } | | | ;.| ] 7 d d   2 i.. (.(.(.(.(.(.(.",
"(.(.(.(.(.6 G I.Y.Y.H.N.Z o @ X R Y ` } ` ` } } _ ) 8 A A   . e . (.(.(.(.(.(.(.",
"(.(.(.(.(.(.4 G g.g.C.=.J 6   X E b Q ! T T ) ) W b O 9 9       . (.(.(.(.(.(.(.",
"(.(.(.(.(.(.(..   6 J *.*.J 6 . k X l U I n U Y U O       . e u s (.(.(.(.(.(.(.",
"(.(.(.(.(.(.(.(.  S L L L L S .     h x c O z m z o   (.(.e a.n.Q.t (.(.(.(.(.(.",
"(.(.(.(.(.(.(.(..   #       #                         (.(.u v.E./.a (.(.(.(.(.(.",
"(.(.(.(.(.(.(.(.  - 9.w.w.w.e.w.: #               - % (.(.(.. < 1 (.(.(.(.(.(.(.",
"(.(.(.(.(.(.(.(.. 9.e.e.e.e.e.e.w.8.8.8.8.8.8.8.8.8.% (.(.(.(.(.(.(.(.(.(.(.(.(.",
"(.(.(.(.(.(.(.    8.e.e.e.e.e.y.y.y.y.r.r.y.t.e.e.w.= (.(.(.(.(.(.(.(.(.(.(.(.(.",
"(.(.(.(.(.(.(.  & 8.9.: * * ; > > > > ; ; > > * * 9.% (.(.(.(.(.(.(.(.(.(.(.(.(.",
"(.(.(.(.(.(.(.  & , & % .                         & $ (.(.(.(.(.(.(.(.(.(.(.(.(.",
"(.(.(.(.(.(.(.(..     (.(.(.(.(.(.(.(.(.(.(.(.(.  . (.(.(.(.(.(.(.(.(.(.(.(.(.(.",
"(.(.(.(.(.(.(.(.(.(.(.(.(.(.(.(.(.(.(.(.(.(.(.(.(.(.(.(.(.(.(.(.(.(.(.(.(.(.(.(.",
"(.(.(.(.(.(.(.(.(.(.(.(.(.(.(.(.(.(.(.(.(.(.(.(.(.(.(.(.(.(.(.(.(.(.(.(.(.(.(.(."
};
