/* XPM */
static char *result[] = {
/* columns rows colors chars-per-pixel */
"40 40 199 2 ",
"   c #1D222F",
".  c #1E232F",
"X  c #1D2330",
"o  c #1E2430",
"O  c #1E2531",
"+  c #1E2631",
"@  c #1F2731",
"#  c #202B2E",
"$  c #202931",
"%  c #212E30",
"&  c #202B34",
"*  c #202C35",
"=  c #212D35",
"-  c #212C36",
";  c #212D36",
":  c #212E36",
">  c #212E37",
",  c #212F37",
"<  c #222F37",
"1  c #212E38",
"2  c #223238",
"3  c #233239",
"4  c #22313A",
"5  c #22323A",
"6  c #23333A",
"7  c #233439",
"8  c #24353B",
"9  c #24373B",
"0  c #24373E",
"q  c #263B3B",
"w  c #263E38",
"e  c #253C3A",
"r  c #263C3B",
"t  c #253A3D",
"y  c #25383E",
"u  c #253B3E",
"i  c #253A3F",
"p  c #263B3F",
"a  c #28443A",
"s  c #28413C",
"d  c #28413E",
"f  c #2A4839",
"g  c #2B4D3C",
"h  c #2C503D",
"j  c #2D533E",
"k  c #274044",
"l  c #294540",
"z  c #284441",
"x  c #284245",
"c  c #284346",
"v  c #294544",
"b  c #294547",
"n  c #294647",
"m  c #2A4943",
"M  c #2B4D41",
"N  c #294748",
"B  c #2A4748",
"V  c #29494A",
"C  c #2B4A4A",
"Z  c #2B4B4C",
"A  c #2C4D4C",
"S  c #2C4E4D",
"D  c #2C4F4E",
"F  c #2E5343",
"G  c #2D5247",
"H  c #2E5545",
"J  c #2F5941",
"K  c #2E5349",
"L  c #2F5749",
"P  c #2E534C",
"I  c #2E534D",
"U  c #2D504E",
"Y  c #2D514F",
"T  c #2D524F",
"R  c #2F5848",
"E  c #315E48",
"W  c #2D5350",
"Q  c #2E5350",
"!  c #2E5351",
"~  c #2E5451",
"^  c #2E5551",
"/  c #2E5552",
"(  c #2F5652",
")  c #2F5653",
"_  c #2F5753",
"`  c #2F5853",
"'  c #2F5953",
"]  c #305853",
"[  c #305953",
"{  c #305A52",
"}  c #305A53",
"|  c #315D52",
" . c #305C53",
".. c #315D53",
"X. c #315E52",
"o. c #315F52",
"O. c #325F52",
"+. c #336349",
"@. c #33634D",
"#. c #32604F",
"$. c #32624E",
"%. c #34684A",
"&. c #356B4A",
"*. c #356C48",
"=. c #366E49",
"-. c #366F49",
";. c #366F4A",
":. c #356B4D",
">. c #35694F",
",. c #366D4E",
"<. c #37704A",
"1. c #37714E",
"2. c #37724E",
"3. c #37724F",
"4. c #38744B",
"5. c #39764D",
"6. c #3A784D",
"7. c #3A794D",
"8. c #3B7B4D",
"9. c #3A794F",
"0. c #3A7A4E",
"q. c #3B7A4E",
"w. c #3A7B4E",
"e. c #3A7A4F",
"r. c #3A7B4F",
"t. c #3A7C4F",
"y. c #3B7C4F",
"u. c #3B7D4F",
"i. c #3C7E4E",
"p. c #3D7E4E",
"a. c #3D7F4E",
"s. c #326052",
"d. c #326152",
"f. c #326252",
"g. c #336451",
"h. c #336452",
"j. c #346551",
"k. c #346552",
"l. c #346652",
"z. c #346752",
"x. c #356951",
"c. c #356952",
"v. c #366D50",
"b. c #366C51",
"n. c #376E50",
"m. c #376F50",
"M. c #366E51",
"N. c #376F51",
"B. c #377050",
"V. c #377150",
"C. c #377350",
"Z. c #387250",
"A. c #387450",
"S. c #387550",
"D. c #397650",
"F. c #397750",
"G. c #3A7850",
"H. c #3A7950",
"J. c #62AA3F",
"K. c #63AB3F",
"L. c #3F824D",
"P. c #3E804E",
"I. c #3E814E",
"U. c #44864B",
"Y. c #44874B",
"T. c #40834C",
"R. c #40824D",
"E. c #44874C",
"W. c #44884B",
"Q. c #468A4B",
"!. c #488C49",
"~. c #498D49",
"^. c #4A8F49",
"/. c #488C4A",
"(. c #4A8E4A",
"). c #4D9247",
"_. c #4B9048",
"`. c #4B9049",
"'. c #4D9148",
"]. c #559B44",
"[. c #549A45",
"{. c #569D44",
"}. c #579D44",
"|. c #589E43",
" X c #589E44",
".X c #5AA142",
"XX c #5BA242",
"oX c #5CA341",
"OX c #5DA341",
"+X c #5CA242",
"@X c #5CA342",
"#X c #5FA740",
"$X c #5FA641",
"%X c #5DA442",
"&X c #60A740",
"*X c #60A840",
"=X c #61A940",
"-X c #62AA40",
";X c None",
/* pixels */
";X;X;X;X;X;X;X;X;X;X;X;X;X;X% # l ,.u.u.u.u.:.e # % ;X;X;X;X;X;X;X;X;X;X;X;X;X;X",
";X;X;X;X;X;X;X;X;X;X;X;Xw R 2.6.q.U.~.~.~.~.U.7.6.2.R w ;X;X;X;X;X;X;X;X;X;X;X;X",
";X;X;X;X;X;X;X;X;X;Xh F &.8.T./.(.}.#X&X&X#X}.(./.T.8.&.F f ;X;X;X;X;X;X;X;X;X;X",
";X;X;X;X;X;X;X;X;XJ 4.5.p.).{.%X$X=XK.K.K.K.=X$X%X{.).p.5.;.j ;X;X;X;X;X;X;X;X;X",
";X;X;X;X;X;X;X;Xh -.y.a.`.oX=XK.K.K.K.K.K.K.K.K.K.=XoX`.a.w.=.h ;X;X;X;X;X;X;X;X",
";X;X;X;X;X;X;Xg *.w.u.Y.|.J.K.K.K.K.K.K.K.K.K.K.K.K.J.|.Y.u.w.*.g ;X;X;X;X;X;X;X",
";X;X;X;X;X;Xa <.0.u.u.!.OXK.K.K.K.K.K.K.K.K.K.K.K.K.K.OX!.u.u.0.<.a ;X;X;X;X;X;X",
";X;X;X;X;Xd +.u.u.u.u.Y. X-XK.K.K.K.K.K.K.K.K.K.K.K.-X XE.u.u.u.u.+.d ;X;X;X;X;X",
";X;X;X;X$ H 9.u.u.u.u.P._.XX*XJ.K.K.K.K.K.K.K.K.J.*XXX_.P.u.u.u.u.9.H $ ;X;X;X;X",
";X;X;X;Xs %.u.u.u.u.u.u.L.'.[..X@X*XK.K.K.K.*X@X.X[.'.L.u.u.u.u.u.u.%.s ;X;X;X;X",
";X;X;Xv E 5.u.u.u.u.u.u.u.R.W.^.`.].+X@X@X+X].`.^.W.R.u.u.u.u.u.u.u.5.E ;X;X;X;X",
";X;X;XK 1.y.u.u.u.u.u.u.u.u.i.P.I.Q._._._._.Q.I.P.i.u.u.u.u.u.u.u.u.y.1.m ;X;X;X",
";X;Xt @.9.u.u.u.u.u.u.u.u.u.u.u.u.a.I.I.I.I.a.u.u.u.u.u.u.u.u.u.u.u.u.9.L 9 ;X;X",
";X;Xr 3.y.u.u.u.u.u.u.u.u.u.u.u.u.u.u.u.u.u.u.u.u.u.u.u.u.u.u.u.u.u.u.y.>.q ;X;X",
";X@ M r.u.u.u.u.u.u.u.u.u.u.u.u.u.u.u.u.u.u.u.u.u.u.u.u.u.u.u.u.u.u.u.u.H.M @ ;X",
";X= $.u.u.u.u.u.u.u.u.u.u.u.u.u.u.u.u.u.u.u.u.u.u.u.u.u.u.u.u.u.u.u.u.u.u.$.= ;X",
";X7 c.u.u.u.u.u.u.u.u.u.u.u.u.u.u.u.u.u.u.u.u.u.u.u.u.u.u.u.u.u.u.u.u.u.u.c.7 ;X",
";XG S.u.u.u.u.u.u.u.u.u.u.u.u.u.u.u.u.u.u.u.u.u.u.u.u.u.u.u.u.u.u.u.u.u.u.S.G ;X",
"+ g.y.u.u.u.u.u.u.u.u.u.u.u.u.u.u.u.u.u.u.u.u.u.u.u.u.u.u.u.u.u.u.u.u.u.u.y.g.+ ",
". l.u.u.u.u.u.u.u.u.u.u.u.u.u.u.u.u.u.u.u.u.u.u.u.u.u.u.u.u.u.u.u.u.u.u.u.u.l.. ",
". l.u.u.u.u.u.u.u.u.u.u.u.u.u.u.u.u.u.u.u.u.u.u.u.u.u.u.u.u.u.u.u.u.u.u.u.u.l.. ",
". l.u.u.u.u.u.u.u.u.u.u.u.u.u.u.u.u.u.u.u.u.u.u.u.u.u.u.u.u.u.u.u.u.u.u.u.u.l.. ",
"o l.u.u.u.u.u.u.u.u.u.u.u.u.u.u.u.u.u.u.u.u.u.u.u.u.u.u.u.u.u.u.u.u.u.u.u.u.l.o ",
"; #.r.u.u.u.u.u.u.u.u.u.u.u.u.u.u.u.u.u.u.u.u.u.u.u.u.u.u.u.u.u.u.u.u.u.u.r.#.; ",
";Xz N.u.u.u.u.u.u.u.u.u.u.u.u.u.u.u.u.u.u.u.u.u.u.u.u.u.u.u.u.u.u.u.u.u.u.N.z ;X",
";X2 k.r.u.u.u.u.u.u.u.u.u.u.u.u.u.u.u.u.u.u.u.u.u.u.u.u.u.u.u.u.u.u.u.u.H.k.2 ;X",
";X* P m.G.r.u.u.u.u.u.u.u.u.u.y.e.e.D.A.A.D.e.e.y.u.u.u.u.u.u.u.u.u.r.G.x.I * ;X",
";X  u O.x.V.e.r.u.u.u.u.u.u.e.F.n.v.j.s.s.j.v.n.F.e.u.u.u.u.u.u.r.e.V.x...i   ;X",
";X;X< (  .f.v.Z.e.t.u.u.r.e.B.x.O.| } _ _ } | O.x.B.e.r.u.u.t.e.Z.v.f. .~ , ;X;X",
";X;X- D _ ' X.h.M.C.D.D.B.b.f. .` _ _ _ _ _ _ `  .f.b.B.D.D.C.M.h.X.' _ B & ;X;X",
";X;X;Xc ~ _ _ { o.h.z.z.d.| [ _ _ _ _ _ _ _ _ _ _ [ | d.z.z.h.o.{ _ _ ~ y ;X;X;X",
";X;X;X4 A _ _ _ ` [ } } ] _ _ _ _ _ _ _ _ _ _ _ _ _ _ ] } } [ ` _ _ _ A ; ;X;X;X",
";X;X;XX k W _ _ _ _ _ _ _ _ _ _ _ _ _ _ _ _ _ _ _ _ _ _ _ _ _ _ _ _ W k ;X;X;X;X",
";X;X;X;X> N ! _ _ _ _ _ _ _ _ _ _ _ _ _ _ _ _ _ _ _ _ _ _ _ _ _ _ ! N > ;X;X;X;X",
";X;X;X;X;X5 b Q / _ _ _ _ _ _ _ _ _ _ _ _ _ _ _ _ _ _ _ _ _ _ / Q b 5 ;X;X;X;X;X",
";X;X;X;X;X;X1 x Z ~ ) _ _ _ _ _ _ _ _ _ _ _ _ _ _ _ _ _ _ ( ~ Z x 1 ;X;X;X;X;X;X",
";X;X;X;X;X;X;XO 0 V Y Y U ^ _ _ _ _ _ _ _ _ _ _ _ _ ^ U Y S n 0 O ;X;X;X;X;X;X;X",
";X;X;X;X;X;X;X;X;X;Xp 3 < C Q T T ^ _ _ _ _ ^ T T Q C < 3 8 ;X;X;X;X;X;X;X;X;X;X",
";X;X;X;X;X;X;X;X;X;X;X;X;X;X6 : : n Q Q Q Q n : : 6 ;X;X;X;X;X;X;X;X;X;X;X;X;X;X",
";X;X;X;X;X;X;X;X;X;X;X;X;X;X;X;X;X;X+     + ;X;X;X;X;X;X;X;X;X;X;X;X;X;X;X;X;X;X"
};
